<!--
  阿里巴巴 iconfont 风格线性图标合集（本地 symbol）
  viewBox 统一 1024，可与 iconfont 项目互换
-->
<svg xmlns="http://www.w3.org/2000/svg" style="display:none">
  <symbol id="ali-icon-mic" viewBox="0 0 1024 1024">
    <path d="M512 64c-88.4 0-160 71.6-160 160v288c0 88.4 71.6 160 160 160s160-71.6 160-160V224c0-88.4-71.6-160-160-160z" fill="currentColor"/>
    <path d="M288 448c0-17.7-14.3-32-32-32s-32 14.3-32 32c0 147.5 110.7 269.2 254 286.2V832h-96c-17.7 0-32 14.3-32 32s14.3 32 32 32h256c17.7 0 32-14.3 32-32s-14.3-32-32-32h-96V734.2c143.3-17 254-138.7 254-286.2 0-17.7-14.3-32-32-32s-32 14.3-32 32c0 123.7-100.3 224-224 224S288 571.7 288 448z" fill="currentColor"/>
  </symbol>

  <symbol id="ali-icon-voice" viewBox="0 0 1024 1024">
    <path d="M512 128c-141.4 0-256 114.6-256 256v128c0 141.4 114.6 256 256 256s256-114.6 256-256V384c0-141.4-114.6-256-256-256z m160 384c0 88.4-71.6 160-160 160s-160-71.6-160-160V384c0-88.4 71.6-160 160-160s160 71.6 160 160v128z" fill="currentColor"/>
    <path d="M192 448c0-17.7-14.3-32-32-32s-32 14.3-32 32c0 196.4 148.7 358.4 340 379.3V928H320c-17.7 0-32 14.3-32 32s14.3 32 32 32h384c17.7 0 32-14.3 32-32s-14.3-32-32-32H556V827.3C747.3 806.4 896 644.4 896 448c0-17.7-14.3-32-32-32s-32 14.3-32 32c0 160.2-129.8 290-290 290S192 608.2 192 448z" fill="currentColor"/>
  </symbol>

  <symbol id="ali-icon-setting" viewBox="0 0 1024 1024">
    <path d="M924.8 625.7l-65.5-56c3.1-19 4.7-38.6 4.7-58.7s-1.6-39.7-4.7-58.7l65.5-56c10.1-8.6 13.9-22.8 9.4-35.4l-59.9-155.5c-4.5-11.7-16.2-19.5-28.8-19.1l-80.8 3.3c-28.8-22.3-61.1-40.1-96.1-52.5l-17.5-78.3C648.3 70.2 636.6 64 623.7 64H400.3c-12.9 0-24.6 6.2-27.2 18.8l-17.5 78.3c-35 12.4-67.3 30.2-96.1 52.5l-80.8-3.3c-12.6-0.4-24.3 7.4-28.8 19.1L90 360.9c-4.5 12.6-0.7 26.8 9.4 35.4l65.5 56c-3.1 19-4.7 38.6-4.7 58.7s1.6 39.7 4.7 58.7l-65.5 56c-10.1 8.6-13.9 22.8-9.4 35.4l59.9 155.5c4.5 11.7 16.2 19.5 28.8 19.1l80.8-3.3c28.8 22.3 61.1 40.1 96.1 52.5l17.5 78.3c2.6 12.6 14.3 18.8 27.2 18.8h223.4c12.9 0 24.6-6.2 27.2-18.8l17.5-78.3c35-12.4 67.3-30.2 96.1-52.5l80.8 3.3c12.6 0.4 24.3-7.4 28.8-19.1L934.2 661c4.5-12.5 0.7-26.7-9.4-35.3zM512 704c-106 0-192-86-192-192s86-192 192-192 192 86 192 192-86 192-192 192z" fill="currentColor"/>
  </symbol>

  <symbol id="ali-icon-translate" viewBox="0 0 1024 1024">
    <path d="M128 160h352c17.7 0 32 14.3 32 32v64H128c-17.7 0-32-14.3-32-32s14.3-32 32-32z" fill="currentColor"/>
    <path d="M160 320h288l-48 96H208l-48-96zM224 480h160l-80 176-80-176z" fill="currentColor"/>
    <path d="M544 256h352c17.7 0 32 14.3 32 32v544c0 17.7-14.3 32-32 32H544c-17.7 0-32-14.3-32-32V288c0-17.7 14.3-32 32-32z m64 96v448h224V352H608z" fill="currentColor"/>
    <path d="M672 448h96c17.7 0 32 14.3 32 32s-14.3 32-32 32h-32.6l-48.8 128H720c17.7 0 32 14.3 32 32s-14.3 32-32 32h-96c-17.7 0-32-14.3-32-32s14.3-32 32-32h16.6l48.8-128H672c-17.7 0-32-14.3-32-32s14.3-32 32-32z" fill="currentColor"/>
    <path d="M96 576h288c17.7 0 32 14.3 32 32v224c0 17.7-14.3 32-32 32H96c-17.7 0-32-14.3-32-32V608c0-17.7 14.3-32 32-32z m64 96v128h160V672H160z" fill="currentColor"/>
  </symbol>

  <symbol id="ali-icon-global" viewBox="0 0 1024 1024">
    <path d="M512 64C264.6 64 64 264.6 64 512s200.6 448 448 448 448-200.6 448-448S759.4 64 512 64z m0 820c-205.4 0-372-166.6-372-372s166.6-372 372-372 372 166.6 372 372-166.6 372-372 372z" fill="currentColor"/>
    <path d="M512 176c-17.7 0-32 14.3-32 32v32.3C355.1 254.8 256 366.9 256 512s99.1 257.2 224 271.7V816c0 17.7 14.3 32 32 32s32-14.3 32-32v-32.3C668.9 769.2 768 657.1 768 512s-99.1-257.2-224-271.7V208c0-17.7-14.3-32-32-32z m0 128c88.2 0 160 93.1 160 208s-71.8 208-160 208-160-93.1-160-208 71.8-208 160-208z" fill="currentColor"/>
    <path d="M192 480h640c17.7 0 32 14.3 32 32s-14.3 32-32 32H192c-17.7 0-32-14.3-32-32s14.3-32 32-32z" fill="currentColor"/>
  </symbol>

  <symbol id="ali-icon-save" viewBox="0 0 1024 1024">
    <path d="M893.3 293.3L730.7 130.7c-12.5-12.5-29.4-19.5-47.1-19.5H160c-35.3 0-64 28.7-64 64v672c0 35.3 28.7 64 64 64h704c35.3 0 64-28.7 64-64V340.4c0-17.7-7-34.7-19.5-47.1zM384 192h192v128H384V192z m384 640H256V576h512v256z m64-352H320V192h32v160c0 17.7 14.3 32 32 32h256c17.7 0 32-14.3 32-32V192h47.6L832 352.4V480z" fill="currentColor"/>
  </symbol>

  <symbol id="ali-icon-play" viewBox="0 0 1024 1024">
    <path d="M512 64C264.6 64 64 264.6 64 512s200.6 448 448 448 448-200.6 448-448S759.4 64 512 64z m0 820c-205.4 0-372-166.6-372-372s166.6-372 372-372 372 166.6 372 372-166.6 372-372 372z" fill="currentColor"/>
    <path d="M719.4 499.1l-296.1-215A15.9 15.9 0 0 0 398 297v430c0 13.1 14.8 20.5 25.3 12.9l296.1-215a15.9 15.9 0 0 0 0-25.8z" fill="currentColor"/>
  </symbol>

  <symbol id="ali-icon-stop" viewBox="0 0 1024 1024">
    <path d="M512 64C264.6 64 64 264.6 64 512s200.6 448 448 448 448-200.6 448-448S759.4 64 512 64z m0 820c-205.4 0-372-166.6-372-372s166.6-372 372-372 372 166.6 372 372-166.6 372-372 372z" fill="currentColor"/>
    <path d="M368 352h288c17.7 0 32 14.3 32 32v288c0 17.7-14.3 32-32 32H368c-17.7 0-32-14.3-32-32V384c0-17.7 14.3-32 32-32z" fill="currentColor"/>
  </symbol>

  <symbol id="ali-icon-plus" viewBox="0 0 1024 1024">
    <path d="M480 480V192c0-17.7 14.3-32 32-32s32 14.3 32 32v288h288c17.7 0 32 14.3 32 32s-14.3 32-32 32H544v288c0 17.7-14.3 32-32 32s-32-14.3-32-32V544H192c-17.7 0-32-14.3-32-32s14.3-32 32-32h288z" fill="currentColor"/>
  </symbol>

  <symbol id="ali-icon-delete" viewBox="0 0 1024 1024">
    <path d="M360 184h-8c4.4 0 8-3.6 8-8v8h304v-8c0 4.4 3.6 8 8 8h-8v72h72v-80c0-35.3-28.7-64-64-64H352c-35.3 0-64 28.7-64 64v80h72v-72z" fill="currentColor"/>
    <path d="M864 256H160c-17.7 0-32 14.3-32 32s14.3 32 32 32h32v552c0 35.3 28.7 64 64 64h512c35.3 0 64-28.7 64-64V320h32c17.7 0 32-14.3 32-32s-14.3-32-32-32zM704 832H320V320h384v512z" fill="currentColor"/>
    <path d="M432 432c-17.7 0-32 14.3-32 32v256c0 17.7 14.3 32 32 32s32-14.3 32-32V464c0-17.7-14.3-32-32-32zM592 432c-17.7 0-32 14.3-32 32v256c0 17.7 14.3 32 32 32s32-14.3 32-32V464c0-17.7-14.3-32-32-32z" fill="currentColor"/>
  </symbol>

  <symbol id="ali-icon-import" viewBox="0 0 1024 1024">
    <path d="M880 112H144c-17.7 0-32 14.3-32 32v736c0 17.7 14.3 32 32 32h360c17.7 0 32-14.3 32-32s-14.3-32-32-32H176V176h640v264c0 17.7 14.3 32 32 32s32-14.3 32-32V144c0-17.7-14.3-32-32-32z" fill="currentColor"/>
    <path d="M653.3 599.4l-108.1 108V456c0-17.7-14.3-32-32-32s-32 14.3-32 32v251.4l-108.1-108c-12.5-12.5-32.8-12.5-45.3 0s-12.5 32.8 0 45.3l162.7 162.7c12.5 12.5 32.8 12.5 45.3 0l162.7-162.7c12.5-12.5 12.5-32.8 0-45.3-12.4-12.5-32.7-12.5-45.2 0z" fill="currentColor"/>
  </symbol>

  <symbol id="ali-icon-export" viewBox="0 0 1024 1024">
    <path d="M880 112H144c-17.7 0-32 14.3-32 32v736c0 17.7 14.3 32 32 32h360c17.7 0 32-14.3 32-32s-14.3-32-32-32H176V176h640v264c0 17.7 14.3 32 32 32s32-14.3 32-32V144c0-17.7-14.3-32-32-32z" fill="currentColor"/>
    <path d="M753.6 602.7L590.9 440c-12.5-12.5-32.8-12.5-45.3 0s-12.5 32.8 0 45.3l108.1 108H400c-17.7 0-32 14.3-32 32s14.3 32 32 32h253.7l-108.1 108c-12.5 12.5-12.5 32.8 0 45.3s32.8 12.5 45.3 0l162.7-162.7c12.5-12.4 12.5-32.7 0-45.2z" fill="currentColor"/>
  </symbol>

  <symbol id="ali-icon-folder" viewBox="0 0 1024 1024">
    <path d="M880 298.4H521L403.7 186.2c-1.5-1.4-3.5-2.2-5.5-2.2H144c-17.7 0-32 14.3-32 32v592c0 17.7 14.3 32 32 32h736c17.7 0 32-14.3 32-32V330.4c0-17.7-14.3-32-32-32zM840 768H184V256h188.5l119.6 114.4H840V768z" fill="currentColor"/>
  </symbol>

  <symbol id="ali-icon-refresh" viewBox="0 0 1024 1024">
    <path d="M909.1 209.3l-56.4 44.1C775.8 155.1 656.2 92 521.9 92 290 92 102.3 279.5 102 511.5 101.7 743.7 289.8 932 521.9 932c181.3 0 335.8-115 394.6-276.1 1.5-4.2-0.7-8.9-4.9-10.3l-56.7-19.5c-4.1-1.4-8.6 0.7-10.1 4.8-1.8 5-3.8 10-5.9 14.9C768.9 751.1 656.6 828 521.9 828c-166.3 0-301.3-134.9-301.3-301.2S355.6 225.5 521.9 225.5c100.7 0 190.5 49.1 245.5 125.1l-82.6-11.3c-4.4-0.6-8.5 2.5-9.1 6.9l-8.1 56.4c-0.6 4.4 2.5 8.5 6.9 9.1l176.4 25.3c4.4 0.6 8.5-2.5 9.1-6.9l25.3-176.4c0.6-4.4-2.5-8.5-6.9-9.1l-56.4-8.1c-0.5 0.1-0.9 0.1-1.3 0.1z" fill="currentColor"/>
  </symbol>

  <symbol id="ali-icon-arrow-up" viewBox="0 0 1024 1024">
    <path d="M512 320c-8.2 0-16.4 3.1-22.6 9.4L214.1 604.7c-12.5 12.5-12.5 32.8 0 45.3s32.8 12.5 45.3 0L512 397.3l252.7 252.7c12.5 12.5 32.8 12.5 45.3 0s12.5-32.8 0-45.3L534.6 329.4C528.4 323.1 520.2 320 512 320z" fill="currentColor"/>
  </symbol>

  <symbol id="ali-icon-arrow-down" viewBox="0 0 1024 1024">
    <path d="M512 704c8.2 0 16.4-3.1 22.6-9.4l275.3-275.3c12.5-12.5 12.5-32.8 0-45.3s-32.8-12.5-45.3 0L512 626.7 259.3 374c-12.5-12.5-32.8-12.5-45.3 0s-12.5 32.8 0 45.3l275.3 275.3c6.2 6.3 14.4 9.4 22.7 9.4z" fill="currentColor"/>
  </symbol>

  <symbol id="ali-icon-swap" viewBox="0 0 1024 1024">
    <path d="M864 320H320.1l80.2-80.2c12.5-12.5 12.5-32.8 0-45.3s-32.8-12.5-45.3 0l-148.5 148.5c-12.5 12.5-12.5 32.8 0 45.3l148.5 148.5c6.2 6.2 14.4 9.4 22.6 9.4s16.4-3.1 22.6-9.4c12.5-12.5 12.5-32.8 0-45.3L320.1 384H864c17.7 0 32-14.3 32-32s-14.3-32-32-32zM160 704h543.9l-80.2 80.2c-12.5 12.5-12.5 32.8 0 45.3 6.2 6.2 14.4 9.4 22.6 9.4s16.4-3.1 22.6-9.4l148.5-148.5c12.5-12.5 12.5-32.8 0-45.3L668.9 487.2c-12.5-12.5-32.8-12.5-45.3 0s-12.5 32.8 0 45.3l80.2 80.2H160c-17.7 0-32 14.3-32 32s14.3 32 32 32z" fill="currentColor"/>
  </symbol>

  <symbol id="ali-icon-link" viewBox="0 0 1024 1024">
    <path d="M574 665.4c-3.1-3.1-8.2-3.1-11.3 0L462.7 765.4c-68.9 68.9-180.9 68.9-249.9 0-68.9-68.9-68.9-180.9 0-249.9l100-100c3.1-3.1 3.1-8.2 0-11.3l-39.6-39.6c-3.1-3.1-8.2-3.1-11.3 0l-100 100c-96.3 96.3-96.3 252.6 0 348.9 96.3 96.3 252.6 96.3 348.9 0l100-100c3.1-3.1 3.1-8.2 0-11.3L574 665.4z" fill="currentColor"/>
    <path d="M862.1 161.9c-96.3-96.3-252.6-96.3-348.9 0l-100 100c-3.1 3.1-3.1 8.2 0 11.3l39.6 39.6c3.1 3.1 8.2 3.1 11.3 0l100-100c68.9-68.9 180.9-68.9 249.9 0 68.9 68.9 68.9 180.9 0 249.9l-100 100c-3.1 3.1-3.1 8.2 0 11.3l39.6 39.6c3.1 3.1 8.2 3.1 11.3 0l100-100c96.2-96.4 96.2-252.7 0-348.9z" fill="currentColor"/>
    <path d="M610.2 372.8c-3.1-3.1-8.2-3.1-11.3 0L372.8 598.9c-3.1 3.1-3.1 8.2 0 11.3l39.6 39.6c3.1 3.1 8.2 3.1 11.3 0l226.1-226.1c3.1-3.1 3.1-8.2 0-11.3l-39.6-39.6z" fill="currentColor"/>
  </symbol>

  <symbol id="ali-icon-copy" viewBox="0 0 1024 1024">
    <path d="M768 192H288c-17.7 0-32 14.3-32 32v32h480V224c0-17.7-14.3-32-32-32z" fill="currentColor"/>
    <path d="M832 288H192c-35.3 0-64 28.7-64 64v480c0 35.3 28.7 64 64 64h640c35.3 0 64-28.7 64-64V352c0-35.3-28.7-64-64-64z m0 544H192V352h640v480z" fill="currentColor"/>
  </symbol>

  <symbol id="ali-icon-clear" viewBox="0 0 1024 1024">
    <path d="M899.1 869.7l-53.8-53.8c12.5-19.4 19.7-42.3 19.7-66.9 0-66.3-53.7-120-120-120-24.6 0-47.5 7.2-66.9 19.7l-53.8-53.8c27.3-13.9 58.1-21.9 90.7-21.9 110.5 0 200 89.5 200 200 0 32.6-8 63.4-21.9 90.7z" fill="currentColor"/>
    <path d="M768 768c0 35.3-28.7 64-64 64s-64-28.7-64-64 28.7-64 64-64 64 28.7 64 64zM832 128H320c-17.7 0-32 14.3-32 32v96H160c-17.7 0-32 14.3-32 32s14.3 32 32 32h64v544c0 35.3 28.7 64 64 64h352c17.7 0 32-14.3 32-32s-14.3-32-32-32H288V320h480v160c0 17.7 14.3 32 32 32s32-14.3 32-32V160c0-17.7-14.3-32-32-32z" fill="currentColor"/>
  </symbol>

  <symbol id="ali-icon-upload" viewBox="0 0 1024 1024">
    <path d="M512 128c-17.7 0-32 14.3-32 32v432.7L362.3 475c-12.5-12.5-32.8-12.5-45.3 0s-12.5 32.8 0 45.3l193.7 193.7c12.5 12.5 32.8 12.5 45.3 0L749.7 520.3c12.5-12.5 12.5-32.8 0-45.3s-32.8-12.5-45.3 0L544 592.7V160c0-17.7-14.3-32-32-32z" fill="currentColor"/>
    <path d="M160 704v128c0 17.7 14.3 32 32 32h640c17.7 0 32-14.3 32-32V704c0-17.7-14.3-32-32-32s-32 14.3-32 32v96H224v-96c0-17.7-14.3-32-32-32s-32 14.3-32 32z" fill="currentColor"/>
  </symbol>

  <symbol id="ali-icon-close" viewBox="0 0 1024 1024">
    <path d="M563.8 512l262.5-312.9c4.4-5.2 0.7-13.1-6.1-13.1h-79.8c-4.7 0-9.2 2.1-12.3 5.7L511.6 449.8 295.1 191.7c-3-3.6-7.5-5.7-12.3-5.7H203c-6.8 0-10.5 7.9-6.1 13.1L459.4 512 196.9 824.9c-4.4 5.2-0.7 13.1 6.1 13.1h79.8c4.7 0 9.2-2.1 12.3-5.7l216.5-258.1 216.5 258.1c3 3.6 7.5 5.7 12.3 5.7h79.8c6.8 0 10.5-7.9 6.1-13.1L563.8 512z" fill="currentColor"/>
  </symbol>

  <symbol id="ali-icon-check" viewBox="0 0 1024 1024">
    <path d="M912 190h-69.9c-9.8 0-19.1 4.5-25.1 12.2L404.7 724.5 215 474.1c-6.1-7.7-15.3-12.2-25.1-12.2H120c-6.7 0-10.4 7.7-6.3 12.9l256.3 321.3c11.7 14.7 32.4 14.7 44.1 0l512-640c4-5.1 0.4-12.9-6.3-12.9z" fill="currentColor"/>
  </symbol>

  <symbol id="ali-icon-listen" viewBox="0 0 1024 1024">
    <path d="M512 128c-17.7 0-32 14.3-32 32v448c0 70.7-57.3 128-128 128s-128-57.3-128-128 57.3-128 128-128c23.7 0 45.8 6.5 64.8 17.8V160c0-17.7 14.3-32 32-32s32 14.3 32 32v169.8C526.2 318.5 548.3 312 572 312c70.7 0 128 57.3 128 128v48c0 17.7-14.3 32-32 32s-32-14.3-32-32v-48c0-35.3-28.7-64-64-64s-64 28.7-64 64v40.5c18.9 11.3 41 17.8 64.8 17.8 23.7 0 45.8-6.5 64.8-17.8V640c0 106-86 192-192 192s-192-86-192-192V160c0-17.7 14.3-32 32-32s32 14.3 32 32v448c0 70.7 57.3 128 128 128s128-57.3 128-128V160c0-17.7 14.3-32 32-32z" fill="currentColor"/>
    <path d="M352 608c-35.3 0-64 28.7-64 64s28.7 64 64 64 64-28.7 64-64-28.7-64-64-64zM672 408c-35.3 0-64 28.7-64 64s28.7 64 64 64 64-28.7 64-64-28.7-64-64-64z" fill="currentColor"/>
  </symbol>

  <symbol id="ali-icon-pause" viewBox="0 0 1024 1024">
    <path d="M512 64C264.6 64 64 264.6 64 512s200.6 448 448 448 448-200.6 448-448S759.4 64 512 64z m0 820c-205.4 0-372-166.6-372-372s166.6-372 372-372 372 166.6 372 372-166.6 372-372 372z" fill="currentColor"/>
    <path d="M384 352h64c17.7 0 32 14.3 32 32v256c0 17.7-14.3 32-32 32h-64c-17.7 0-32-14.3-32-32V384c0-17.7 14.3-32 32-32zM576 352h64c17.7 0 32 14.3 32 32v256c0 17.7-14.3 32-32 32h-64c-17.7 0-32-14.3-32-32V384c0-17.7 14.3-32 32-32z" fill="currentColor"/>
  </symbol>
</svg>
